<?xml version="1.0" encoding="UTF-8" standalone="no"?><svg xmlns="http://www.w3.org/2000/svg" xmlns:xlink="http://www.w3.org/1999/xlink" contentScriptType="application/ecmascript" contentStyleType="text/css" height="458px" preserveAspectRatio="none" style="width:689px;height:458px;background:#FFFFFF;" version="1.1" viewBox="0 0 689 458" width="689px" zoomAndPan="magnify"><defs><filter height="300%" id="f18v9pcucv7ty4" width="300%" x="-1" y="-1"><feGaussianBlur result="blurOut" stdDeviation="2.0"/><feColorMatrix in="blurOut" result="blurOut2" type="matrix" values="0 0 0 0 0 0 0 0 0 0 0 0 0 0 0 0 0 0 .4 0"/><feOffset dx="4.0" dy="4.0" in="blurOut2" result="blurOut3"/><feBlend in="SourceGraphic" in2="blurOut3" mode="normal"/></filter></defs><g><g id="new"><rect fill="#FEFECE" filter="url(#f18v9pcucv7ty4)" height="50" rx="12.5" ry="12.5" style="stroke:#A80036;stroke-width:1.5;" width="104" x="219.5" y="7"/><line style="stroke:#A80036;stroke-width:1.5;" x1="219.5" x2="323.5" y1="36.0679" y2="36.0679"/><text fill="#000000" font-family="sans-serif" font-size="14" lengthAdjust="spacing" textLength="84" x="229.5" y="26.9659">创建（new）</text></g><g id="running"><rect fill="#FEFECE" filter="url(#f18v9pcucv7ty4)" height="50" rx="12.5" ry="12.5" style="stroke:#A80036;stroke-width:1.5;" width="131" x="92" y="265"/><line style="stroke:#A80036;stroke-width:1.5;" x1="92" x2="223" y1="294.0679" y2="294.0679"/><text fill="#000000" font-family="sans-serif" font-size="14" lengthAdjust="spacing" textLength="111" x="102" y="284.9659">运行（running）</text></g><g id="ready"><rect fill="#FEFECE" filter="url(#f18v9pcucv7ty4)" height="50" rx="12.5" ry="12.5" style="stroke:#A80036;stroke-width:1.5;" width="114" x="214.5" y="136"/><line style="stroke:#A80036;stroke-width:1.5;" x1="214.5" x2="328.5" y1="165.0679" y2="165.0679"/><text fill="#000000" font-family="sans-serif" font-size="14" lengthAdjust="spacing" textLength="94" x="224.5" y="155.9659">就绪（ready）</text></g><g id="waiting"><rect fill="#FEFECE" filter="url(#f18v9pcucv7ty4)" height="50" rx="12.5" ry="12.5" style="stroke:#A80036;stroke-width:1.5;" width="128" x="289.5" y="394"/><line style="stroke:#A80036;stroke-width:1.5;" x1="289.5" x2="417.5" y1="423.0679" y2="423.0679"/><text fill="#000000" font-family="sans-serif" font-size="14" lengthAdjust="spacing" textLength="108" x="299.5" y="413.9659">阻塞（blocked）</text></g><g id="terminated"><rect fill="#FEFECE" filter="url(#f18v9pcucv7ty4)" height="50" rx="12.5" ry="12.5" style="stroke:#A80036;stroke-width:1.5;" width="151" x="7" y="394"/><line style="stroke:#A80036;stroke-width:1.5;" x1="7" x2="158" y1="423.0679" y2="423.0679"/><text fill="#000000" font-family="sans-serif" font-size="14" lengthAdjust="spacing" textLength="131" x="17" y="413.9659">终止（terminated）</text></g><!--MD5=[3a301de0eee8bad99d38cf1dfb13ebc0]
link new to ready--><path d="M271.5,57.19 C271.5,78.11 271.5,108.41 271.5,130.71 " fill="none" id="new-to-ready" style="stroke:#A80036;stroke-width:1.0;"/><polygon fill="#A80036" points="271.5,135.9,275.5,126.9,271.5,130.9,267.5,126.9,271.5,135.9" style="stroke:#A80036;stroke-width:1.0;"/><text fill="#000000" font-family="sans-serif" font-size="13" lengthAdjust="spacing" textLength="89" x="272.5" y="101.897">创建(admitted)</text><!--MD5=[eebb845feef2544b6375a900809b63e8]
link ready to running--><path d="M214.26,170.47 C164.09,179.2 96.72,194.56 80.5,216 C67.79,232.8 81.8,249.16 101.19,262.11 " fill="none" id="ready-to-running" style="stroke:#A80036;stroke-width:1.0;"/><polygon fill="#A80036" points="105.68,264.99,100.2922,256.7455,101.4806,262.2761,95.95,263.4645,105.68,264.99" style="stroke:#A80036;stroke-width:1.0;"/><text fill="#000000" font-family="sans-serif" font-size="13" lengthAdjust="spacing" textLength="146" x="81.5" y="230.897">调度(scheduler dispatch)</text><!--MD5=[e564a0841085e20ff15ffd3b38bca6f5]
link running to ready--><path d="M198.05,264.86 C210.09,256.43 222.68,246.23 232.5,235 C243.89,221.98 253.19,205.06 259.85,190.79 " fill="none" id="running-to-ready" style="stroke:#A80036;stroke-width:1.0;"/><polygon fill="#A80036" points="262.01,186.06,254.6443,192.5981,259.941,190.6118,261.9272,195.9085,262.01,186.06" style="stroke:#A80036;stroke-width:1.0;"/><text fill="#000000" font-family="sans-serif" font-size="13" lengthAdjust="spacing" textLength="153" x="247.5" y="230.897">中断，取消调度(interrupt)</text><!--MD5=[31f916b5b96f5e8eb1b1eda0ed7e21c0]
link running to waiting--><path d="M176.97,315.05 C190.47,330.55 209.54,350.3 229.5,364 C246.28,375.51 265.9,385.42 284.53,393.49 " fill="none" id="running-to-waiting" style="stroke:#A80036;stroke-width:1.0;"/><polygon fill="#A80036" points="289.24,395.5,282.5434,388.2781,284.6443,393.5304,279.392,395.6313,289.24,395.5" style="stroke:#A80036;stroke-width:1.0;"/><text fill="#000000" font-family="sans-serif" font-size="13" lengthAdjust="spacing" textLength="192" x="230.5" y="359.897">I/O或事件发起(I/O or event wait)</text><!--MD5=[574efdf80f6b283932350a65e70af0e0]
link waiting to ready--><path d="M400.63,393.76 C411.4,385.82 421.45,375.91 427.5,364 C457.52,304.93 450.56,268.01 409.5,216 C391.04,192.62 361.05,179.34 333.73,171.81 " fill="none" id="waiting-to-ready" style="stroke:#A80036;stroke-width:1.0;"/><polygon fill="#A80036" points="328.66,170.47,336.3277,176.6511,333.4916,171.7565,338.3862,168.9204,328.66,170.47" style="stroke:#A80036;stroke-width:1.0;"/><text fill="#000000" font-family="sans-serif" font-size="13" lengthAdjust="spacing" textLength="235" x="446.5" y="295.397">I/O或事件完成(I/O or event completion)</text><!--MD5=[04bd647f8a24f9c9622c460de0418ed2]
link running to terminated--><path d="M107.47,315.06 C96.27,322.96 85.84,332.89 79.5,345 C72.53,358.31 72.65,374.93 74.79,388.95 " fill="none" id="running-to-terminated" style="stroke:#A80036;stroke-width:1.0;"/><polygon fill="#A80036" points="75.67,393.99,78.0688,384.4377,74.8133,389.0639,70.1871,385.8085,75.67,393.99" style="stroke:#A80036;stroke-width:1.0;"/><text fill="#000000" font-family="sans-serif" font-size="13" lengthAdjust="spacing" textLength="108" x="80.5" y="359.897">退出或被终止(exit)</text><!--MD5=[f442f740a1aba43317478fd5891d84fc]
@startuml
state new as "创建（new）"
state running as "运行（running）"
state ready as "就绪（ready）"
state waiting as "阻塞（blocked）"
state terminated as "终止（terminated）"

new - -> ready: 创建(admitted)
ready - -> running: 调度(scheduler dispatch)
running - -> ready: 中断，取消调度(interrupt)
running - -> waiting: I/O或事件发起(I/O or event wait)
waiting - -> ready: I/O或事件完成(I/O or event completion)
running - -> terminated: 退出或被终止(exit)
@enduml

PlantUML version 1.2022.0(Wed Jan 12 00:16:42 CST 2022)
(GPL source distribution)
Java Runtime: OpenJDK Runtime Environment
JVM: OpenJDK 64-Bit Server VM
Default Encoding: UTF-8
Language: en
Country: US
--></g></svg>